<svg width="375" height="539" viewBox="0 0 375 539" fill="none" xmlns="http://www.w3.org/2000/svg">
<path d="M575.5 774L581 770L626 772L588.5 974L-158.5 1001.5L-155.5 33L-122 0.5L-116 2.5L-111 3.5V8L-113.5 12L-113 18.5L-115 19.5L-109 27H-105.5L-100.5 31L-96.5 40L-93.5 32L-96.5 20.5L-90 18.5L-84.5 16L-83 8.5L-84 4.5L-83 3H-80L-77 0.5L-66 0L-65 1.5H-60.5L-63.5 6.5L-62.5 13L-60.5 12.5L-59 10L-60.5 6.5L-56 2.5L-57 12.5L-58 17L-52.5 19.5V23H-56L-62 25L-58 35.5H-53L-49 38L-44.5 44L-42.5 48L-35.5 50.5L-36 52L-39 51L-45.5 50.5H-51.5L-59 52.5H-65L-67.5 55.5L-60.5 54L-52.5 52.5H-41L-34 54.5L-29.5 65.5L-28 64.5L-32 54.5H-29.5L-25 60.5L-26.5 67L-31 77L-34 78L-38 75.5L-40 77L-34 82L-26.5 90L-21.5 86H-15.5L-11 85L-7 87L-2.5 88.5H3.5V95L6.5 91L11 95L14.5 100L12 102.5L3.5 105.5L-2.5 104.5L-11 100L-17 106.5L-11 103.5L-7 106.5L-8 115L-11 111.5V115L-8 120H-5L-2.5 125.5L5 133L11 143L17.5 141.5L15 138.5L9 135.5L10 129L16 135L16.5 133.5L14.5 128.5L20.5 124.5L24 128.5L27.5 127L31.5 126.5L33.5 129L32.5 134L29 139.5L37 139L43 137.5L47 133L47.5 127.5L51 128.5L49 135.5L46 140.5L40.5 142L40 144L34.5 145L25.5 143.5L16.5 145.5L16 150.5L21 151.5L24.5 155.5V160.5L27.5 165L22.5 172L21 177H16.5L11 182.5V187L16.5 190L22.5 192L21 197.5L16.5 203.5L12 201V208.5L31 222L32.5 219L29.5 214.5L35.5 208.5L34 203L36.5 205H40L38 201L37 192L41 196.5L47.5 197.5L48 201L45.5 203.5L51.5 210L50.5 219L49 223.5L53.5 222L52 215.5L55.5 213L53.5 206L59.5 206.5L57.5 209.5V213L61 217L69.5 224.5L89 239.5L85 243L89 245L97 236L100 243L94 247.5L97 250.5V255L100 258V252H104.5V258H111V262L116 266.5V271.5L120.5 276.5L128 274.5L133 266.5L140 264L150 270L147.5 272.5L156.5 274.5L154 278L146.5 275.5V281.5L150 285L161.5 288L173.5 283L184 281.5L193.5 273.5L201.5 265.5L199.5 258L203 255L208.5 252L212.5 248L215.5 241.5L217.5 236L222.5 235.5V234L226 233.5H233.5L229.5 239.5L219.5 247.5L224 250.5L219.5 255H217L212 258L207.5 266.5L212 270L220.5 260.5L224.5 262L222.5 266.5L215.5 270L217 274.5L224.5 278L228.5 275.5L233 278V270L236.5 271.5V276.5L240 279L249.5 280L244.5 288L240 289.5H235.5V294.5L244.5 303L248.5 301.5L254.5 303L256 307L271 321.5L284 307L292 314.5L296.5 309.5V301.5L294.5 298L295.5 305.5H292L287.5 301.5L290.5 295.5L294.5 293L296.5 297L300 299.5L298 306.5L300 309.5L301.5 307L308 308.5L310.5 312V316.5L312 320.5L315 324L321 327L319 329.5L317 333.5L312.5 331.5V326L308.5 319.5L301.5 320L296.5 324L294.5 328V335.5L300 345.5L301.5 351L283 362L278 373.5L282.5 383.5H287V376.5L285 377L281.5 373.5V368L284.5 365.5L290 368L296 369H301.5L308 376L312.5 376.5L317 383.5L320 379L321.5 373L324 366.5L327 365.5L331 368L331.5 376L327 387H332.5L338.5 391L346 395.5L347.5 400L350 410.5L354.5 419.5L353.5 426.5L355 429.5L354.5 431L352.5 430L346 436L350.5 443L355.5 441.5L352.5 436L357 430L363 433.5L362 436L364 439.5L362 441.5L365.5 444.5L357.5 447L355.5 453L365.5 458L362 464L364 466.5L361.5 471H365.5L369 467.5L376 474L380.5 475V467.5L386.5 464.5L382.5 456.5L386.5 454.5L389 461.5L398 469L408 464.5L412 467.5L401.5 478L398 486L410 503.5L417 513.5V507L421.5 511L424 506H430.5L434.5 509L436.5 502.5H440.5L438.5 511L443 517L452 522.5L453 535L436.5 543.5L438.5 547.5L434.5 552L440.5 555L443 561V570H450.5L453 580.5L461 579L466 577.5L462 571.5L464.5 567L466 562L470.5 561L468 556L471.5 546L468 537V533H471.5L473.5 542.5L477.5 544.5V550.5L475 555L471.5 553.5V557L476.5 561L473.5 566L468 570L473.5 574L477.5 584.5L475 591L477.5 594L491 610H505L514.5 619L513.5 622.5L510.5 622L509 626H512.5L515 629.5L511 638L512.5 640L515 638L519.5 637.5V642H516L513 644.5L518.5 647.5L511 656L511.5 665L507 668.5L514.5 674L513 681.5H508L505.5 684.5L508 690L494 697.5L493 701L496 703.5V701L499 699H507V695L511.5 692.5H517.5L522 695L521 702L517.5 711L516 720.5L522 716.5L521 723.5L527 722.5L530.5 729.5L540.5 727L543.5 737L547 738L552 735L555 737V741.5V750.5L557 759.5L549 763.5L551 766H555L557.5 763L562 758.5L565.5 754L568.5 755.5L565.5 758.5L567.5 759L568.5 763H566.5V766L569.5 770L575.5 774Z" fill="#C8F19F"/>
</svg>
